<?xml version="1.0" encoding="utf-8"?>
<!-- Generator: Adobe Illustrator 21.0.0, SVG Export Plug-In . SVG Version: 6.00 Build 0)  -->
<svg version="1.1" id="Layer_1" xmlns="http://www.w3.org/2000/svg" xmlns:xlink="http://www.w3.org/1999/xlink" x="0px" y="0px"
	 width="3000px" height="2000px" viewBox="0 0 3000 2000" style="enable-background:new 0 0 3000 2000;" xml:space="preserve">
<style type="text/css">
	.st0{fill-rule:evenodd;clip-rule:evenodd;fill:#2A3947;}
	.st1{fill-rule:evenodd;clip-rule:evenodd;fill:#142635;}
	.st2{fill-rule:evenodd;clip-rule:evenodd;fill:#FCD254;}
	.st3{fill-rule:evenodd;clip-rule:evenodd;fill:#3C4D5C;}
	.st4{fill-rule:evenodd;clip-rule:evenodd;fill:#FFFFFF;}
	.st5{fill-rule:evenodd;clip-rule:evenodd;fill:#205F96;}
	.st6{fill-rule:evenodd;clip-rule:evenodd;fill:#144E7A;}
	.st7{fill-rule:evenodd;clip-rule:evenodd;fill:#F5BBAA;}
	.st8{fill-rule:evenodd;clip-rule:evenodd;fill:#E7E5E4;}
	.st9{fill-rule:evenodd;clip-rule:evenodd;fill:#F19C82;}
	.st10{fill-rule:evenodd;clip-rule:evenodd;fill:#3674A9;}
	.st11{fill-rule:evenodd;clip-rule:evenodd;fill:#612424;}
	.st12{fill-rule:evenodd;clip-rule:evenodd;fill:#931C21;}
	.st13{fill-rule:evenodd;clip-rule:evenodd;fill:#F8CBC0;}
	.st14{fill-rule:evenodd;clip-rule:evenodd;fill:#F0F1F1;}
	.st15{fill-rule:evenodd;clip-rule:evenodd;fill:#CACACB;}
	.st16{fill-rule:evenodd;clip-rule:evenodd;fill:#AFB0AF;}
	.st17{fill-rule:evenodd;clip-rule:evenodd;fill:#969697;}
	.st18{fill-rule:evenodd;clip-rule:evenodd;fill:#EBEBEB;}
</style>
<g>
	<rect x="0" y="0" class="st0" width="3000" height="2000"/>
	<g>
		<path class="st1" d="M1380.3,1320.6h-236.6c-29.1,0-52.9,23.8-52.9,52.9v138.6h342.5v-138.6
			C1433.3,1344.4,1409.4,1320.6,1380.3,1320.6z"/>
		<path class="st2" d="M1374.3,1508h-231.4c-3.1,0-5.9,1.7-7.4,4.1h246.2C1380.2,1509.6,1377.5,1508,1374.3,1508z"/>
		<path class="st2" d="M1374.3,1466.5h-231.4c-4.8,0-8.7,3.9-8.7,8.7v13.7c0,4.8,3.9,8.7,8.7,8.7h231.4c4.8,0,8.7-3.9,8.7-8.7v-13.7
			C1383,1470.4,1379.1,1466.5,1374.3,1466.5z"/>
		<path class="st2" d="M1374.3,1424.9h-231.4c-4.8,0-8.7,3.9-8.7,8.7v13.7c0,4.8,3.9,8.7,8.7,8.7h231.4c4.8,0,8.7-3.9,8.7-8.7v-13.7
			C1383,1428.9,1379.1,1424.9,1374.3,1424.9z"/>
		<path class="st1" d="M1692.5,785.5L1607,671.7c-8.3-11-22.1-10.6-30.7,0.8l-84.9,113h-6.1c-26.2,0-47.7,21.5-47.7,47.7v272.9
			c-36.2,1.4-65.4,31.4-65.4,67.9v338.1h351V792.4c-7.2-4.4-15.6-6.9-24.6-6.9H1692.5z"/>
		<path class="st2" d="M1575.2,1449.6h-45.2c-5.8,0-10.6,4.8-10.6,10.6v16.7c0,5.8,4.8,10.6,10.6,10.6h45.2
			c5.8,0,10.6-4.8,10.6-10.6v-16.7C1585.7,1454.4,1581,1449.6,1575.2,1449.6z"/>
		<path class="st2" d="M1653.9,1449.6h-45.2c-5.8,0-10.6,4.8-10.6,10.6v16.7c0,5.8,4.8,10.6,10.6,10.6h45.2
			c5.8,0,10.6-4.8,10.6-10.6v-16.7C1664.4,1454.4,1659.7,1449.6,1653.9,1449.6z"/>
		<path class="st2" d="M1496.5,1449.6h-45.2c-5.8,0-10.6,4.8-10.6,10.6v16.7c0,5.8,4.8,10.6,10.6,10.6h45.2
			c5.8,0,10.6-4.8,10.6-10.6v-16.7C1507.1,1454.4,1502.3,1449.6,1496.5,1449.6z"/>
		<path class="st2" d="M1676.7,1460.2v16.7c0,5.8,4.8,10.6,10.6,10.6h35.8v-37.8h-35.8C1681.5,1449.6,1676.7,1454.4,1676.7,1460.2z"
			/>
		<path class="st2" d="M1440.7,1308.8v16.7c0,5.8,4.8,10.6,10.6,10.6h271.9v-37.8h-271.9C1445.4,1298.2,1440.7,1303,1440.7,1308.8z"
			/>
		<path class="st2" d="M1440.7,1409.8v16.7c0,5.8,4.8,10.6,10.6,10.6h271.9v-37.8h-271.9C1445.4,1399.2,1440.7,1403.9,1440.7,1409.8
			z"/>
		<path class="st2" d="M1440.7,1258.4v16.7c0,5.8,4.8,10.6,10.6,10.6h271.9v-37.8h-271.9C1445.4,1247.8,1440.7,1252.6,1440.7,1258.4
			z"/>
		<path class="st2" d="M1440.7,1359.3v16.7c0,5.8,4.8,10.6,10.6,10.6h271.9v-37.8h-271.9C1445.4,1348.7,1440.7,1353.5,1440.7,1359.3
			z"/>
		<path class="st1" d="M806,799.8V586.6c0-20.5-16.8-37.3-37.3-37.3H764l-66.8-88.9c-6.5-8.6-17.3-8.3-24,0.6l-66.3,88.2h-4.7
			c-20.5,0-37.3,16.8-37.3,37.3v213.2c-28.3,1.1-51.1,24.5-51.1,53v659.3h343.4V852.8C857.1,824.3,834.3,800.9,806,799.8z"/>
		<path class="st2" d="M668.2,1049.2h-26.7c-7.2,0-13,5.9-13,13v0c0,7.2,5.9,13,13,13h26.7c7.2,0,13-5.9,13-13v0
			C681.2,1055.1,675.4,1049.2,668.2,1049.2z"/>
		<path class="st2" d="M668.2,1001.1h-26.7c-7.2,0-13,5.9-13,13c0,7.2,5.9,13,13,13h26.7c7.2,0,13-5.9,13-13
			C681.2,1006.9,675.4,1001.1,668.2,1001.1z"/>
		<path class="st2" d="M668.2,952.9h-26.7c-7.2,0-13,5.9-13,13v0c0,7.2,5.9,13,13,13h26.7c7.2,0,13-5.9,13-13v0
			C681.2,958.8,675.4,952.9,668.2,952.9z"/>
		<path class="st2" d="M607,1049.2h-26.7c-7.2,0-13,5.9-13,13v0c0,7.2,5.9,13,13,13H607c7.2,0,13-5.9,13-13v0
			C620.1,1055.1,614.2,1049.2,607,1049.2z"/>
		<path class="st2" d="M607,904.8h-26.7c-7.2,0-13,5.9-13,13v0c0,7.2,5.9,13,13,13H607c7.2,0,13-5.9,13-13v0
			C620.1,910.7,614.2,904.8,607,904.8z"/>
		<path class="st2" d="M729.4,1049.2h-26.7c-7.2,0-13,5.9-13,13v0c0,7.2,5.9,13,13,13h26.7c7.2,0,13-5.9,13-13v0
			C742.4,1055.1,736.5,1049.2,729.4,1049.2z"/>
		<path class="st2" d="M607,1001.1h-26.7c-7.2,0-13,5.9-13,13c0,7.2,5.9,13,13,13H607c7.2,0,13-5.9,13-13
			C620.1,1006.9,614.2,1001.1,607,1001.1z"/>
		<path class="st2" d="M668.2,856.7h-26.7c-7.2,0-13,5.9-13,13v0c0,7.2,5.9,13,13,13h26.7c7.2,0,13-5.9,13-13v0
			C681.2,862.5,675.4,856.7,668.2,856.7z"/>
		<path class="st2" d="M729.4,1001.1h-26.7c-7.2,0-13,5.9-13,13c0,7.2,5.9,13,13,13h26.7c7.2,0,13-5.9,13-13
			C742.4,1006.9,736.5,1001.1,729.4,1001.1z"/>
		<path class="st2" d="M790.5,1049.2h-26.7c-7.2,0-13,5.9-13,13v0c0,7.2,5.9,13,13,13h26.7c7.2,0,13-5.9,13-13v0
			C803.6,1055.1,797.7,1049.2,790.5,1049.2z"/>
		<path class="st2" d="M790.5,904.8h-26.7c-7.2,0-13,5.9-13,13v0c0,7.2,5.9,13,13,13h26.7c7.2,0,13-5.9,13-13v0
			C803.6,910.7,797.7,904.8,790.5,904.8z"/>
		<path class="st2" d="M790.5,856.7h-26.7c-7.2,0-13,5.9-13,13v0c0,7.2,5.9,13,13,13h26.7c7.2,0,13-5.9,13-13v0
			C803.6,862.5,797.7,856.7,790.5,856.7z"/>
		<path class="st2" d="M790.5,1001.1h-26.7c-7.2,0-13,5.9-13,13c0,7.2,5.9,13,13,13h26.7c7.2,0,13-5.9,13-13
			C803.6,1006.9,797.7,1001.1,790.5,1001.1z"/>
		<path class="st2" d="M729.4,952.9h-26.7c-7.2,0-13,5.9-13,13v0c0,7.2,5.9,13,13,13h26.7c7.2,0,13-5.9,13-13v0
			C742.4,958.8,736.5,952.9,729.4,952.9z"/>
		<path class="st2" d="M729.4,856.7h-26.7c-7.2,0-13,5.9-13,13v0c0,7.2,5.9,13,13,13h26.7c7.2,0,13-5.9,13-13v0
			C742.4,862.5,736.5,856.7,729.4,856.7z"/>
		<path class="st2" d="M729.4,904.8h-26.7c-7.2,0-13,5.9-13,13v0c0,7.2,5.9,13,13,13h26.7c7.2,0,13-5.9,13-13v0
			C742.4,910.7,736.5,904.8,729.4,904.8z"/>
		<path class="st1" d="M1070.8,1163.7H778.7c-35.9,0-65.3,29.4-65.3,65.3v283.1h422.7V1229
			C1136.1,1193.1,1106.7,1163.7,1070.8,1163.7z"/>
		<path class="st2" d="M903.5,1455h-32.9c-8.8,0-16.1,7.2-16.1,16.1v0c0,8.8,7.2,16.1,16.1,16.1h32.9c8.8,0,16.1-7.2,16.1-16.1v0
			C919.6,1462.2,912.4,1455,903.5,1455z"/>
		<path class="st2" d="M828.2,1395.7h-32.9c-8.8,0-16.1,7.2-16.1,16.1v0c0,8.8,7.2,16.1,16.1,16.1h32.9c8.8,0,16.1-7.2,16.1-16.1v0
			C844.3,1402.9,837.1,1395.7,828.2,1395.7z"/>
		<path class="st2" d="M978.8,1455h-32.9c-8.8,0-16.1,7.2-16.1,16.1v0c0,8.8,7.2,16.1,16.1,16.1h32.9c8.8,0,16.1-7.2,16.1-16.1v0
			C994.9,1462.2,987.7,1455,978.8,1455z"/>
		<path class="st2" d="M903.5,1336.4h-32.9c-8.8,0-16.1,7.2-16.1,16.1v0c0,8.8,7.2,16.1,16.1,16.1h32.9c8.8,0,16.1-7.2,16.1-16.1v0
			C919.6,1343.7,912.4,1336.4,903.5,1336.4z"/>
		<path class="st2" d="M978.8,1395.7h-32.9c-8.8,0-16.1,7.2-16.1,16.1v0c0,8.8,7.2,16.1,16.1,16.1h32.9c8.8,0,16.1-7.2,16.1-16.1v0
			C994.9,1402.9,987.7,1395.7,978.8,1395.7z"/>
		<path class="st2" d="M1054.2,1395.7h-32.9c-8.8,0-16.1,7.2-16.1,16.1v0c0,8.8,7.2,16.1,16.1,16.1h32.9c8.8,0,16.1-7.2,16.1-16.1v0
			C1070.2,1402.9,1063,1395.7,1054.2,1395.7z"/>
		<path class="st2" d="M1054.2,1336.4h-32.9c-8.8,0-16.1,7.2-16.1,16.1v0c0,8.8,7.2,16.1,16.1,16.1h32.9c8.8,0,16.1-7.2,16.1-16.1v0
			C1070.2,1343.7,1063,1336.4,1054.2,1336.4z"/>
		<path class="st2" d="M1054.2,1455h-32.9c-8.8,0-16.1,7.2-16.1,16.1v0c0,8.8,7.2,16.1,16.1,16.1h32.9c8.8,0,16.1-7.2,16.1-16.1v0
			C1070.2,1462.2,1063,1455,1054.2,1455z"/>
		<path class="st1" d="M173.3,1318.8H0v193.3h226.4v-140.2C226.4,1342.7,202.5,1318.8,173.3,1318.8z"/>
		<path class="st2" d="M37.5,1507.3H10.8c-4.1,0-7.7,1.9-10.1,4.8h46.9C45.2,1509.2,41.5,1507.3,37.5,1507.3z"/>
		<path class="st2" d="M98.7,1507.3H71.9c-4.1,0-7.7,1.9-10.1,4.8h46.9C106.3,1509.2,102.7,1507.3,98.7,1507.3z"/>
		<path class="st2" d="M37.5,1459.2H10.8c-4.5,0-8.4,2.3-10.8,5.7v14.7c2.4,3.4,6.3,5.7,10.8,5.7h26.7c7.2,0,13-5.9,13-13v0
			C50.5,1465.1,44.7,1459.2,37.5,1459.2z"/>
		<path class="st2" d="M159.8,1507.3h-26.7c-4.1,0-7.7,1.9-10.1,4.8h46.9C167.5,1509.2,163.9,1507.3,159.8,1507.3z"/>
		<path class="st2" d="M159.8,1459.2h-26.7c-7.2,0-13,5.9-13,13v0c0,7.2,5.9,13,13,13h26.7c7.2,0,13-5.9,13-13v0
			C172.9,1465.1,167,1459.2,159.8,1459.2z"/>
		<path class="st1" d="M580.7,1042.6H245.6c-41.2,0-75,33.7-75,75v394.5h485.1v-394.5C655.7,1076.4,622,1042.6,580.7,1042.6z"/>
		<path class="st2" d="M572.3,1190.5H244.5c-6.8,0-12.3,5.5-12.3,12.3v19.4c0,6.8,5.5,12.3,12.3,12.3h327.8
			c6.8,0,12.3-5.5,12.3-12.3v-19.4C584.6,1196,579,1190.5,572.3,1190.5z"/>
		<path class="st2" d="M572.3,1425.7h-52.7c-6.8,0-12.3,5.5-12.3,12.3v19.4c0,6.8,5.5,12.3,12.3,12.3h52.7c6.8,0,12.3-5.5,12.3-12.3
			V1438C584.6,1431.2,579,1425.7,572.3,1425.7z"/>
		<path class="st2" d="M297.2,1425.7h-52.7c-6.8,0-12.3,5.5-12.3,12.3v19.4c0,6.8,5.5,12.3,12.3,12.3h52.7c6.8,0,12.3-5.5,12.3-12.3
			V1438C309.5,1431.2,304,1425.7,297.2,1425.7z"/>
		<path class="st2" d="M480.6,1425.7h-52.7c-6.8,0-12.3,5.5-12.3,12.3v19.4c0,6.8,5.5,12.3,12.3,12.3h52.7c6.8,0,12.3-5.5,12.3-12.3
			V1438C492.9,1431.2,487.3,1425.7,480.6,1425.7z"/>
		<path class="st2" d="M572.3,1249.3H244.5c-6.8,0-12.3,5.5-12.3,12.3v19.4c0,6.8,5.5,12.3,12.3,12.3h327.8
			c6.8,0,12.3-5.5,12.3-12.3v-19.4C584.6,1254.8,579,1249.3,572.3,1249.3z"/>
		<path class="st2" d="M572.3,1366.9H244.5c-6.8,0-12.3,5.5-12.3,12.3v19.4c0,6.8,5.5,12.3,12.3,12.3h327.8
			c6.8,0,12.3-5.5,12.3-12.3v-19.4C584.6,1372.4,579,1366.9,572.3,1366.9z"/>
	</g>
	<path class="st3" d="M1968.5,0h-936.4H888.5H0.7v487.9h887.9v1024.3H0.7V2000H3000v-487.9h-887.9V487.9H3000V0h-887.9H1968.5z
		 M1968.5,1512.1h-936.4V487.9h936.4V1512.1z"/>
	<g>
		<path class="st4" d="M664.6,1840c-2.4,9.6-3.7,19.7-3.7,30c0,71.8,61.3,130,137,130c75.6,0,137-58.2,137-130
			c0-10.3-1.3-20.4-3.7-30H664.6z"/>
		<path class="st4" d="M903.8,1967.3H692c-9,0-16.4,7.4-16.4,16.4c0,9,7.4,16.4,16.4,16.4h211.8c9,0,16.4-7.4,16.4-16.4
			C920.2,1974.6,912.8,1967.3,903.8,1967.3z"/>
	</g>
	<g>
		<path class="st2" d="M2562.5,552.7c-128.6,0-240.3,104.2-249.5,232.8c-2.5,34.7,2.7,67.6,14.2,97.1l-37.5,136.6l134.3-26.8
			c30.8,16.6,66.5,26,105.1,26c128.6,0,240.3-104.2,249.5-232.8C2787.9,656.9,2691.1,552.7,2562.5,552.7z"/>
		<g>
			<path class="st4" d="M2412.3,704c3.8,0,6.6,0.8,9.1,3.7c1.5,1.6,4.2,1.8,6.2,0.2c1.9-1.9,2-4.8,0.3-6.5c-4.6-4.2-9.1-6-15-6
				c-15.4,0-24.4,11.1-25.3,24.1c-0.9,13,5.6,24,21.8,24c5.6,0,11.3-0.9,16.3-5.2c2.5-2.3,2.2-4.8,1.2-6.3c-1.1-1.6-3.9-2.4-6.1-0.8
				c-3.3,2.8-7,4.3-10.8,4.3c-10.4,0-14.8-7.7-14.2-16C2396.5,711.3,2401.9,704,2412.3,704z"/>
			<path class="st4" d="M2462,694.9c-12.4,0-25.9,8.1-27.1,24.6c-1.2,16.5,11.1,24.7,23.6,24.2c11.8,0,24.6-8.3,25.8-24.2
				C2485.4,703.7,2473.7,695.5,2462,694.9z M2475.4,719.6c-0.8,10.5-9.4,15.9-17.1,15.9c-7.5,0-15.3-5.4-14.6-15.9
				c0.8-10.6,9.3-15.9,16.9-15.9C2468.3,703.7,2476.2,709,2475.4,719.6z"/>
			<path class="st4" d="M2529.4,696c-2.3,0-4.4,2.4-4.6,4.6l-1.9,26.1l-20.2-27.8c-1.7-1.7-2.2-2.4-4.6-2.4c-3.5,0-4.2,2.4-4.4,4.8
				l-2.7,37.1c-0.2,3,1.8,4.6,4.2,4.6c2.4,0,4.4-1.7,4.6-4.6l1.9-25.9l20.2,28.2c1.8,1.8,2.9,2.4,5.3,2.4c1.8-0.5,3.7-1.7,3.9-4.6
				l2.7-37.8C2534,698.4,2531.9,696,2529.4,696z"/>
			<path class="st4" d="M2605.6,699c-1.4-3.7-6.3-3.6-8.3,0l-22,37.7c-1.5,2.8-0.4,5.2,1.7,6.4c2.4,0.5,4.9,0,6.1-2.3l3.3-5.9h24.8
				l2.5,5.9c2,5.2,10.5,1.1,8.1-4.2L2605.6,699z M2591.2,726l9.5-16.6l6.4,16.6H2591.2z"/>
			<path class="st4" d="M2710.7,696.4H2679c-5.8,0-6.5,8.6-0.6,8.6h11.8l-2.4,33.9c-0.4,6,8.4,5.8,8.9,0l2.4-33.9h11.1
				C2716.1,705,2716.7,696.4,2710.7,696.4z"/>
			<path class="st4" d="M2652.2,704c3.8,0,6.6,0.8,9.1,3.7c1.5,1.6,4.2,1.8,6.2,0.2c1.9-1.9,2-4.8,0.3-6.5c-4.6-4.2-9.1-6-14.9-6
				c-15.4,0-24.4,11.1-25.3,24.1c-0.9,13,5.6,24,21.8,24c5.6,0,11.3-0.9,16.3-5.2c2.5-2.3,2.2-4.8,1.2-6.3c-1.1-1.6-3.9-2.4-6.1-0.8
				c-3.3,2.8-7,4.3-10.8,4.3c-10.4,0-14.8-7.7-14.2-16C2636.3,711.3,2641.8,704,2652.2,704z"/>
			<path class="st4" d="M2576.2,696.4h-31.8c-5.8,0-6.5,8.6-0.6,8.6h11.8l-2.4,33.9c-0.4,6,8.4,5.8,8.9,0l2.4-33.9h11.1
				C2581.5,705,2582.1,696.4,2576.2,696.4z"/>
			<path class="st4" d="M2532.6,777.8l-36.3,44.8l-28.9-43.2c-2.3-2.8-4.6-5.2-8.8-5.2c-2.3,0-8.9,2.5-9.4,10l-5.9,81.8
				c-0.5,6.4,3.3,10,8,10c5.2,0,10.7-3.6,11.2-10l3.9-53.8l19.5,30.5c4.3,6.4,10.9,6.4,16.6,0l26.3-30.5l-3.9,53.8
				c-0.5,6.4,3.4,10,8.6,10c4.7,0,9-3.6,9.4-10l5.9-81.8C2549.4,774.2,2537.8,771.9,2532.6,777.8z"/>
			<path class="st4" d="M2630.6,775.5h-52.2c-5.1,0-9.3,3.8-9.7,9l-5.9,82.5c-0.4,5.1,3.3,9,8.4,9h54.6c14.2,0,14.6-19,1.4-19h-44.3
				l1.6-21.8h36.6c12.9,0,14.3-19,1.4-19h-36.6l1.6-21.8h41.8C2642.3,794.4,2643.9,775.5,2630.6,775.5z"/>
		</g>
	</g>
	<g>
		<path class="st0" d="M2646.4,1329.4c10-23.8,15.5-49.9,15.5-77.2c0-110.5-90.4-200.9-200.9-200.9h-125.9
			c-110.5,0-200.9,90.4-200.9,200.9c0,52.7,20.6,100.8,54.1,136.7c-42.8,51.7-71.4,115.2-78.3,183.6l-43.3,427.5h627.8l43.3-427.5
			C2747.6,1474.8,2711.2,1387.1,2646.4,1329.4z"/>
		<path class="st1" d="M2646.4,1329.4c10-23.8,15.5-49.9,15.5-77.2c0-110.5-90.4-200.9-200.9-200.9h-125.9c-2.6,0-5.1,0.1-7.7,0.2
			c107,4.1,193.2,92.8,193.2,200.8c0,27.3-5.5,53.4-15.5,77.2c64.8,57.7,101.2,145.4,91.3,243.1l-43.3,427.5h141.2l43.3-427.5
			C2747.6,1474.8,2711.2,1387.1,2646.4,1329.4z"/>
		<path class="st5" d="M2020.7,1347.2c-58.5-25.5-126.6,1.3-152.1,59.8l-209,477.8c-17.2,39.4-10.6,83.2,13.3,115.3h185.3
			c5.2-7,9.7-14.6,13.3-23l209-477.7C2106,1440.8,2079.2,1372.7,2020.7,1347.2z"/>
		<path class="st6" d="M2046.3,1362.5c-42.5,2-82.3,27.6-100.5,69.3l-209,477.7c-13.1,30-12.4,62.5-0.8,90.5h122.2
			c5.2-7,9.7-14.6,13.3-23l209-477.7C2101.9,1450.1,2086.4,1394.2,2046.3,1362.5z"/>
		<path class="st7" d="M1765.5,1814.9h-401.8c-64,0-115.9,51.9-115.9,115.9c0,25.9,8.5,49.8,22.9,69.1h587.9
			c14.4-19.3,22.9-43.2,22.9-69.1C1881.4,1866.8,1829.5,1814.9,1765.5,1814.9z"/>
		<path class="st8" d="M2151.9,1329.5L2151.9,1329.5c-161.5,0-293.6,132.1-293.6,293.6V2000h587.3v-376.9
			C2445.5,1461.6,2313.4,1329.5,2151.9,1329.5z"/>
		<path class="st4" d="M2051.3,1347.3c-112.3,41.3-193,149.6-193,275.8V2000h389.8c2.9-32.1,4.5-65.1,4.5-98.7
			C2252.5,1652.9,2169.6,1439.6,2051.3,1347.3z"/>
		<g>
			<path class="st7" d="M2189.1,1207.6h-269l11.2,187.5c4.4,74,68.6,134.5,142.6,134.5h0c74,0,130.9-60.5,126.5-134.5L2189.1,1207.6
				z"/>
			<path class="st9" d="M2189.1,1207.6h-114.5l10.3,172.8c3,49.6,32.8,93.2,74.5,116.5c27.2-24.7,43.3-61.3,40.8-101.9
				L2189.1,1207.6z"/>
		</g>
		<ellipse class="st1" cx="1827.9" cy="1186.1" rx="96.8" ry="114.9"/>
		<path class="st7" d="M1991.8,897.9c-108.5,0-197.2,88.8-197.2,197.3v127.3c0,108.5,88.8,197.3,197.2,197.3
			c108.5,0,197.2-88.8,197.2-197.3v-127.3C2189.1,986.6,2100.3,897.9,1991.8,897.9z"/>
		<path class="st0" d="M1991.8,831c-56.5,0-107.9,23.1-145.1,60.3c-32.9,32.9-54.8,76.8-59.4,125.6
			c31.1-71.2,100.1-122.3,181.1-127.5c7.6-1.2,15.5-1.9,23.4-1.9c40.9,0,78.2,16.8,105.2,43.8c27,27,43.8,64.2,43.8,105.1v135
			c0,15.6,12.7,28.3,28.3,28.3c15.6,0,28.3-12.7,28.3-28.3v-135c0-56.5-23.1-107.9-60.3-145.1C2099.7,854.1,2048.4,831,1991.8,831z"
			/>
		<path class="st5" d="M2384.8,1361.9c-24.8-58.8-92.5-86.3-151.2-61.6c-58.8,24.8-86.3,92.5-61.6,151.2l221.6,524.2
			c3.7,8.8,8.4,17,13.9,24.3h185c23.7-31.7,30.4-74.8,13.9-114L2384.8,1361.9z"/>
		<path class="st6" d="M2384.8,1361.9c-9.9-23.4-26.6-41.9-46.8-54.1c-42,30.9-59,87.6-37.9,137.8l221.6,524.1
			c4.8,11.3,11.1,21.4,18.7,30.3h52.1c23.7-31.7,30.4-74.8,13.9-114L2384.8,1361.9z"/>
		<path class="st9" d="M1991.8,897.9c-20.6,0-40.5,3.2-59.2,9.1c78,26.3,134.6,100.4,134.6,187v127.3c0,87.9-58.3,162.8-138.1,188.1
			c19.7,6.6,40.8,10.3,62.6,10.3c108.5,0,197.2-88.8,197.2-197.3v-127.3C2189.1,986.6,2100.3,897.9,1991.8,897.9z"/>
		<path class="st5" d="M1982,888.9c-116.8,0-212.3,95.6-212.3,212.3v38.8h424.7v-38.8C2194.4,984.5,2098.8,888.9,1982,888.9z"/>
		<path class="st6" d="M1747.4,1035.3c-46,0-76.8,46.9-68.9,104.8H1845C1837.1,1082.2,1793.4,1035.3,1747.4,1035.3z"/>
		<path class="st6" d="M1777.4,1041.8c-29.6,14.8-46.9,53.2-40.7,98.3H1845C1838.8,1095.1,1811,1056.7,1777.4,1041.8z"/>
		<path class="st5" d="M1673.2,1041.8L1673.2,1041.8c-16.7,19.3-25,45.9-20.9,75.2c1.8,12.8,13.5,23.1,26.3,23.1
			c12.8,0,21.7-10.4,19.9-23.1c-2.3-16.6,2.4-31.7,11.7-42.5c9.4-10.9,23.5-17.6,40.1-17.6c16.6,0,32.6,6.7,44.9,17.6
			c12.4,10.9,21.2,25.9,23.4,42.5c1.7,12.8,13.5,23.1,26.3,23.1c12.8,0,21.7-10.4,19.9-23.1c-1-7.5-2.8-14.8-5.3-21.9h61.9v-84.4
			H1744C1714.7,1010.6,1689.8,1022.5,1673.2,1041.8z"/>
		<path class="st10" d="M1687.2,1046.2c-8.4,8.1-14.7,17.9-18.3,28.9c-3.5,10.5-4.5,22-2.5,34c1,6.4,7.1,10.8,13.5,9.7
			c6.4-1,10.8-7.1,9.7-13.5c-1.3-8.1-0.7-15.8,1.6-22.8c2.4-7.2,6.7-13.8,12.4-19.4c4.7-4.5,4.8-12,0.2-16.7
			C1699.4,1041.7,1691.9,1041.6,1687.2,1046.2z"/>
		<path class="st6" d="M2079.4,912.7c-51.6,26.8-90.9,74.2-107,131.1c-57.9,3.4-104,44.9-106.2,96.2h98.2h129.4h100.5v-38.8
			C2194.4,1019.5,2147.6,948.2,2079.4,912.7z"/>
		<path class="st1" d="M2042.3,837.3c-12.5,15.3-23.7,32.5-33.4,51.2c34.1,4,64.9,19.6,88.1,42.8c27,27,43.8,64.2,43.8,105.1v135
			c0,15.6,12.7,28.3,28.3,28.3c15.6,0,28.3-12.7,28.3-28.3v-135c0-56.5-23.1-107.9-60.3-145.1
			C2111.2,865.6,2078.7,846.6,2042.3,837.3z"/>
		<path class="st1" d="M2136.9,1242.5c-0.1-5.8-4.9-10.5-10.7-10.4c-5.8,0.1-10.5,4.9-10.4,10.7l0,2.3h0c0,28.6-14.2,57.2-37.1,80.3
			c-23.4,23.6-55.8,41.3-91.5,47.7c-6.5,1.2-12.8,1.9-18.9,2.2c-6.2,0.3-12.4,0.3-18.5-0.2c-5.8-0.4-10.9,3.9-11.3,9.8
			c-0.4,5.8,3.9,10.9,9.8,11.3c6.9,0.5,13.9,0.6,21.1,0.2c7.3-0.4,14.5-1.2,21.5-2.5c40.1-7.1,76.5-27.1,102.8-53.7
			c26.8-27,43.4-60.9,43.4-95.2l0-0.1L2136.9,1242.5z"/>
		<ellipse class="st1" cx="1944.8" cy="1390.8" rx="30.6" ry="28.1"/>
		<g>
			<circle class="st11" cx="1972.9" cy="1320.5" r="39.8"/>
			<path class="st4" d="M1972.9,1280.7c-14.5,0-27.2,7.7-34.2,19.3h68.3C2000.1,1288.4,1987.4,1280.7,1972.9,1280.7z"/>
			<path class="st12" d="M1981,1318.1c-18,0-33.3,12-38.2,28.5c7.3,8.4,18.1,13.8,30.1,13.8c18,0,33.3-12,38.2-28.5
				C2003.8,1323.5,1993,1318.1,1981,1318.1z"/>
		</g>
		<path class="st1" d="M2119.4,1193.9h-119.1v-2c0-8.1-3.3-15.4-8.6-20.7l0,0c-5.3-5.3-12.7-8.6-20.7-8.6h-51.5
			c-8.1,0-15.4,3.3-20.7,8.6l0,0c-5.3,5.3-8.6,12.7-8.6,20.7v2H1880v-2c0-8.1-3.3-15.4-8.6-20.8c-5.3-5.3-12.7-8.6-20.8-8.6h-51.5
			c-8.1,0-15.4,3.3-20.7,8.6l0,0c-5.3,5.3-8.6,12.7-8.6,20.7v16.9c0,8.1,3.3,15.4,8.6,20.8c5.3,5.3,12.7,8.6,20.8,8.6h51.5
			c8.1,0,15.4-3.3,20.7-8.6l0,0c5.3-5.3,8.6-12.7,8.6-20.7v-2h10.1v2c0,8.1,3.3,15.4,8.6,20.8c5.3,5.3,12.7,8.6,20.8,8.6h51.5
			c8.1,0,15.4-3.3,20.8-8.6c5.3-5.3,8.6-12.7,8.6-20.8v-2h119.1c3.6,0,6.4-2.9,6.4-6.4C2125.9,1196.8,2123,1193.9,2119.4,1193.9z
			 M1867.1,1200.3v8.5c0,4.5-1.9,8.7-4.8,11.6l0,0c-3,3-7.1,4.8-11.6,4.8h-51.5c-4.5,0-8.7-1.9-11.6-4.8c-3-3-4.9-7.1-4.9-11.6
			v-16.9c0-4.5,1.9-8.7,4.8-11.7c3-3,7.1-4.8,11.7-4.8h51.5c4.5,0,8.7,1.9,11.6,4.9c3,3,4.9,7.1,4.9,11.6V1200.3z M1987.4,1200.3
			v8.5c0,4.5-1.9,8.7-4.9,11.6c-3,3-7.1,4.8-11.6,4.8h-51.5c-4.5,0-8.7-1.9-11.7-4.8c-3-3-4.8-7.1-4.8-11.6v-8.5v-8.5
			c0-4.5,1.9-8.7,4.8-11.7c3-3,7.1-4.8,11.7-4.8h51.5c4.5,0,8.7,1.9,11.7,4.8c3,3,4.8,7.1,4.8,11.7V1200.3z"/>
		<g>
			<ellipse class="st0" cx="2163.3" cy="1186.1" rx="96.8" ry="114.9"/>
			<path class="st1" d="M2163.3,1071.2c-2.9,0-5.7,0.2-8.5,0.4c-16.9,20.7-27.3,48.9-27.3,80c0,63.4,43.3,114.9,96.8,114.9
				c2.9,0,5.7-0.2,8.5-0.4c16.9-20.7,27.3-48.9,27.3-80C2260.1,1122.6,2216.7,1071.2,2163.3,1071.2z"/>
			<path class="st0" d="M2191.2,1101.5c-19.6,0-30.8,18.9-25,42.1c5.8,23.3,26.4,42.1,46,42.1c19.6,0,30.8-18.9,25-42.1
				C2231.4,1120.4,2210.8,1101.5,2191.2,1101.5z"/>
		</g>
		<circle class="st1" cx="1840.8" cy="1191.5" r="14.3"/>
		<circle class="st1" cx="1958.3" cy="1191.5" r="14.3"/>
		<g>
			<path class="st7" d="M2502.4,1318.4c-79.5,9.7-140.8,82.2-136.8,162c2,39.6,19.6,73.5,46.6,96.5l-27.6,344.9
				c-2.3,29.1,6.4,56.5,22.6,78.2h185.8c12.6-16.9,20.8-37.5,22.5-60.1l38.3-477.7c0.7-9.4,0.3-18.7-1.1-27.6
				C2643.3,1360.5,2578.3,1309.2,2502.4,1318.4z"/>
			<path class="st7" d="M2454.8,1429.3l-155,32.2c-21.2,4.3-36.1,25-33.3,46.2c2.8,21.1,22.3,34.8,43.5,30.4l155-32.2
				c21.2-4.4,36.1-25,33.3-46.2C2495.4,1438.6,2476,1425,2454.8,1429.3z"/>
			<path class="st7" d="M2580.6,1242.3c-20.9-2.8-41.2,12.3-45.5,33.6l-14.8,73.7c-4.2,21.3,9.3,40.9,30.1,43.6
				c20.9,2.8,41.2-12.3,45.5-33.6l14.8-73.7C2614.9,1264.7,2601.4,1245.1,2580.6,1242.3z"/>
			<path class="st13" d="M2466.5,1346.3c-44.5,21.4-79.5,62.7-78,92.1c1.5,29.5,38.7,36,83.3,14.5c44.5-21.4,79.5-62.7,78-92.1
				C2548.3,1331.4,2511,1324.9,2466.5,1346.3z"/>
			<path class="st9" d="M2519.7,1317.3c48.3,17,81.1,64.8,76.9,118.3l-38.3,477.7c-2.9,36.4-22.2,67.5-50.2,86.6h84.8
				c12.6-16.9,20.8-37.5,22.5-60.1l38.3-477.7c0.7-9.4,0.3-18.7-1.1-27.6C2644.1,1366.2,2588,1317.2,2519.7,1317.3z"/>
		</g>
		<path class="st0" d="M2612,1573.9h-192.5c-22,0-40,18-40,40s18,40,40,40H2612c22,0,40-18,40-40S2634,1573.9,2612,1573.9z"/>
		<path class="st8" d="M2606.2,1553.9c-29.5,0-55,28.2-56.9,63c-2,34.8,20.3,63,49.8,63c29.5,0,55-28.2,56.9-63
			C2658,1582.1,2635.7,1553.9,2606.2,1553.9z"/>
		<path class="st14" d="M2616,1555c-24.1,6.4-43.2,31.5-44.8,61.5c-1.7,30.8,15.6,56.5,40,62c24.1-6.4,43.2-31.5,44.8-61.5
			C2657.8,1586.1,2640.5,1560.4,2616,1555z"/>
	</g>
	<g>
		<g>
			<path class="st15" d="M2095.7,1920.3H1238c-13.1,0-23.8,10.7-23.8,23.8v32.1c0,13,10.6,23.7,23.7,23.8h857.9
				c13-0.1,23.7-10.7,23.7-23.8v-32.1C2119.4,1931,2108.8,1920.3,2095.7,1920.3z"/>
			<path class="st16" d="M2073.9,1952.7h-57.7c-4.6,0-8.4,3.8-8.4,8.4v11.4c0,4.6,3.8,8.4,8.4,8.4h57.7c4.6,0,8.4-3.8,8.4-8.4v-11.4
				C2082.3,1956.5,2078.5,1952.7,2073.9,1952.7z"/>
			<path class="st16" d="M1989.1,1952.7h-57.7c-4.6,0-8.4,3.8-8.4,8.4v11.4c0,4.6,3.8,8.4,8.4,8.4h57.7c4.6,0,8.4-3.8,8.4-8.4v-11.4
				C1997.6,1956.5,1993.8,1952.7,1989.1,1952.7z"/>
			<ellipse class="st17" cx="1849.2" cy="1966.8" rx="14.1" ry="14.1"/>
		</g>
		<path class="st15" d="M1751.8,1526.4c-1.9-56-49.3-101.8-105.3-101.8H951.9c-56,0-100.2,45.8-98.3,101.8l12.8,371.8
			c1.9,56,49.3,101.8,105.2,101.8h694.9c55.9-0.1,100.1-45.8,98.2-101.8L1751.8,1526.4z"/>
		<path class="st8" d="M1706.4,1526.4c-1.9-56-49.3-101.8-105.3-101.8H906.4c-56,0-100.2,45.8-98.3,101.8l12.8,371.8
			c1.9,56,49.3,101.8,105.2,101.8h694.9c55.9-0.1,100.1-45.8,98.2-101.8L1706.4,1526.4z"/>
		<path class="st18" d="M1601,1424.6H906.4c-56,0-100.2,45.8-98.3,101.8l12.8,371.8c1.9,56,49.3,101.8,105.3,101.8h381.3
			c219.2-87.7,365.1-244.1,365.1-422.5c0-50.7-11.8-99.6-33.7-145.7C1627,1427.1,1614.3,1424.6,1601,1424.6z"/>
		<path class="st15" d="M1332.4,1725.5c-2.5,0.5-5.1,0.7-7.8,0.7c-22.9,0-41.4-18.5-41.4-41.4c0-8.8,2.7-16.9,7.4-23.6
			c-8.9-4.5-18.7-7-29-7c-37.8,0-67.3,34.1-65.8,76.2c1.4,42.1,33.3,76.2,71.1,76.2c37.8,0,67.3-34.1,65.8-76.2
			C1332.6,1728.7,1332.5,1727.1,1332.4,1725.5z"/>
	</g>
	<path class="st18" d="M1912.1,961.7h-57.7c-11.6,0-22.4,9.5-23.9,21.1c-1.5,11.6,6.7,21.1,18.3,21.1h57.7
		c11.6,0,22.4-9.5,23.9-21.1C1931.9,971.2,1923.7,961.7,1912.1,961.7z"/>
	<circle class="st5" cx="2041.8" cy="1704.9" r="110"/>
</g>
</svg>
